HIERARCHY
ROOT SimulationBone
{
	OFFSET 0.000000 0.000000 0.000000
	CHANNELS 6 Xposition Yposition Zposition Zrotation Yrotation Xrotation 
	JOINT Hips
	{
		OFFSET 0.000000 0.000000 0.000000
		CHANNELS 6 Xposition Yposition Zposition Zrotation Yrotation Xrotation 
		JOINT LeftUpLeg
		{
			OFFSET 0.103460 1.857825 10.548519
			CHANNELS 3 Zrotation Yrotation Xrotation
			JOINT LeftLeg
			{
				OFFSET 43.500008 -0.000019 0.000016
				CHANNELS 3 Zrotation Yrotation Xrotation
				JOINT LeftFoot
				{
					OFFSET 42.372192 0.000004 0.000011
					CHANNELS 3 Zrotation Yrotation Xrotation
					JOINT LeftToe
					{
						OFFSET 17.300001 0.000001 -0.000016
						CHANNELS 3 Zrotation Yrotation Xrotation
						End Site
						{
							OFFSET 0.000000 0.000000 0.000000
						}
					}
				}
			}
		}
		JOINT RightUpLeg
		{
			OFFSET 0.103460 1.857824 -10.548484
			CHANNELS 3 Zrotation Yrotation Xrotation
			JOINT RightLeg
			{
				OFFSET 43.500046 -0.000008 0.000031
				CHANNELS 3 Zrotation Yrotation Xrotation
				JOINT RightFoot
				{
					OFFSET 42.372261 0.000000 0.000010
					CHANNELS 3 Zrotation Yrotation Xrotation
					JOINT RightToe
					{
						OFFSET 17.299986 -0.000007 0.000010
						CHANNELS 3 Zrotation Yrotation Xrotation
						End Site
						{
							OFFSET 0.000000 0.000000 0.000000
						}
					}
				}
			}
		}
		JOINT Spine
		{
			OFFSET 6.901969 -2.603749 -0.000000
			CHANNELS 3 Zrotation Yrotation Xrotation
			JOINT Spine1
			{
				OFFSET 12.588099 0.000014 -0.000003
				CHANNELS 3 Zrotation Yrotation Xrotation
				JOINT Spine2
				{
					OFFSET 12.343207 0.000019 0.000011
					CHANNELS 3 Zrotation Yrotation Xrotation
					JOINT Neck
					{
						OFFSET 25.832890 -0.000025 -0.000002
						CHANNELS 3 Zrotation Yrotation Xrotation
						JOINT Head
						{
							OFFSET 11.766609 0.000013 -0.000004
							CHANNELS 3 Zrotation Yrotation Xrotation
							End Site
							{
								OFFSET 0.000000 0.000000 0.000000
							}
						}
					}
					JOINT LeftShoulder
					{
						OFFSET 19.745899 -1.480392 6.000105
						CHANNELS 3 Zrotation Yrotation Xrotation
						JOINT LeftArm
						{
							OFFSET 11.284097 -0.000017 -0.000023
							CHANNELS 3 Zrotation Yrotation Xrotation
							JOINT LeftForeArm
							{
								OFFSET 33.000065 -0.000020 0.000044
								CHANNELS 3 Zrotation Yrotation Xrotation
								JOINT LeftHand
								{
									OFFSET 25.200005 0.000023 0.000007
									CHANNELS 3 Zrotation Yrotation Xrotation
									End Site
									{
										OFFSET 0.000000 0.000000 0.000000
									}
								}
							}
						}
					}
					JOINT RightShoulder
					{
						OFFSET 19.746096 -1.480391 -6.000090
						CHANNELS 3 Zrotation Yrotation Xrotation
						JOINT RightArm
						{
							OFFSET 11.284126 -0.000026 -0.000012
							CHANNELS 3 Zrotation Yrotation Xrotation
							JOINT RightForeArm
							{
								OFFSET 33.000092 0.000010 0.000014
								CHANNELS 3 Zrotation Yrotation Xrotation
								JOINT RightHand
								{
									OFFSET 25.199760 0.000151 0.000418
									CHANNELS 3 Zrotation Yrotation Xrotation
									End Site
									{
										OFFSET 0.000000 0.000000 0.000000
									}
								}
							}
						}
					}
				}
			}
		}
	}
}
MOTION
Frames: 11
Frame Time: 0.033333
254.571342 0.000000 213.981435 0.000000 87.354435 0.000000 2.346064 71.930794 0.379674 96.918396 2.112181 -166.161954 -169.956635 -1.501502 164.735666 -65.508529 1.041516 2.989402 108.071297 -1.902295 18.490862 21.454553 0.003099 0.000001 136.308596 2.556199 178.243854 -23.097529 -3.261669 2.469313 72.504493 1.813092 11.339291 21.454563 -0.003107 -0.000019 7.967217 1.997226 -2.657669 5.831402 4.125071 -5.215042 5.513860 4.093677 -5.239799 14.369320 6.741071 -1.121491 -22.684817 -17.109547 6.666064 -124.832185 -88.063965 -56.994862 17.433161 62.028848 48.461254 -95.625968 -2.429432 2.725056 -1.581363 3.117159 45.530130 -153.875037 77.285052 28.103005 40.611960 -49.447448 -33.780155 -88.074565 3.332122 -2.494120 -13.740204 4.448236 -29.833109 
254.192776 0.000000 209.846169 0.000000 88.802838 0.000000 4.059525 71.579567 0.721165 98.731980 3.926572 -165.709566 -165.421021 -6.837913 161.784328 -66.509643 1.466342 5.569816 99.586583 -2.640487 13.925252 21.454550 0.003104 -0.000003 135.900042 1.744508 -176.035080 -29.667019 -5.663993 4.245471 56.435258 3.561828 13.934799 21.454557 -0.003101 -0.000016 7.553289 2.369498 -2.484530 4.995173 4.843149 -4.869401 4.677092 4.813819 -4.898517 16.284257 6.579314 -2.134671 -21.678933 -16.090727 4.848773 -136.703395 -88.492341 -45.074003 20.141676 61.007195 51.001009 -96.176659 -2.241401 2.736418 -2.414962 2.692575 44.498525 -152.479001 77.297640 29.525880 41.746639 -48.576299 -34.904206 -87.430499 3.385134 -2.469244 -13.302050 4.676590 -29.817795 
253.556434 0.000000 205.925939 0.000000 90.055564 0.000000 5.736777 70.570213 1.214945 100.255679 5.895937 -166.402715 -163.831185 -12.701901 158.353155 -72.341751 2.211670 8.084589 86.969571 -4.305412 6.745273 21.454553 0.003096 -0.000003 132.400280 1.016196 -176.147655 -43.332817 -3.560904 4.329244 57.777274 1.899334 10.975340 21.454558 -0.003099 -0.000017 7.306101 2.847516 -2.130880 4.500157 5.774891 -4.155509 4.181223 5.749853 -4.190327 16.406770 6.743194 -2.978177 -19.377872 -15.667957 3.421906 -135.368667 -88.434393 -46.413949 22.375978 60.630537 52.604618 -96.489058 -2.192419 2.746894 -2.786316 2.162534 43.173325 -154.079123 76.380120 27.916006 37.828344 -46.772883 -32.939673 -85.874473 3.637898 -2.417998 -13.055907 4.729769 -29.052240 
252.674734 0.000000 202.327971 0.000000 91.064480 0.000000 7.025440 69.630920 1.396417 101.901531 6.729341 -167.903348 -164.832436 -16.514209 157.765881 -81.788838 2.082943 8.120216 76.887501 -6.134049 -1.333802 21.454560 0.003092 0.000005 131.083597 1.373087 -176.439714 -54.456989 -1.139810 4.015307 65.389690 1.527940 11.599803 21.454558 -0.003094 -0.000017 7.526433 3.286040 -1.828535 4.945961 6.646483 -3.521625 4.626178 6.625260 -3.561801 15.450941 5.569048 -3.352621 -18.161965 -14.930669 2.529068 -152.886490 -86.805796 -28.895972 23.539912 60.213971 52.024130 -95.766123 -2.436203 2.731760 -3.195760 0.407084 43.269153 -163.031015 76.367990 18.767102 30.780770 -45.336316 -28.586671 -82.697595 4.591751 -2.344871 -13.747840 6.119633 -28.326970 
251.558045 0.000000 199.081700 0.000000 91.831778 0.000000 7.223452 69.605309 1.236882 102.473151 5.878653 -169.847861 -170.303636 -16.007004 157.489054 -92.031369 2.506156 2.695439 76.168665 -3.661144 -5.831787 21.454545 0.003094 0.000004 131.381913 2.635598 -173.499099 -59.800027 -3.837639 1.576107 69.951068 3.034038 11.988048 21.454560 -0.003114 -0.000019 7.781289 3.207608 -1.410132 5.482796 6.477885 -2.671559 5.162858 6.461788 -2.710743 14.527114 5.032725 -3.881884 -17.479482 -14.651659 1.772985 -145.407242 -86.403539 -36.426007 22.292667 61.743865 50.516612 -93.430520 -2.912588 2.661165 -3.473726 -1.122319 43.195428 -171.735121 77.304170 9.874023 22.883466 -45.638098 -24.337106 -77.931973 5.674826 -2.213996 -13.217846 8.437027 -25.528136 
250.177804 0.000000 196.210420 0.000000 92.390558 0.000000 6.653390 70.223473 1.189646 102.283129 4.825997 -170.533804 -178.420046 -15.471898 155.803322 -100.246393 2.967828 -1.370814 83.239194 0.298982 -2.374838 21.454553 0.003090 0.000000 132.275260 4.586189 -173.687353 -61.828778 -4.308986 0.491336 72.711646 3.840493 12.966004 21.454558 -0.003100 -0.000017 7.904981 3.101207 -1.073743 5.751096 6.251537 -1.995524 5.431142 6.239519 -2.033360 14.824702 4.228529 -4.610154 -16.965558 -13.376753 0.376457 -157.439303 -86.641120 -24.323176 20.444213 62.701881 48.131452 -91.713888 -3.279672 2.610544 -3.310875 -0.690058 45.223830 179.626913 77.824658 1.070032 15.108435 -45.268564 -20.275876 -72.845217 7.018028 -2.092605 -10.920388 8.946804 -21.419803 
248.532471 0.000000 193.730883 0.000000 92.794825 0.000000 5.543075 71.063690 0.879752 101.608553 3.530157 -171.711242 171.789312 -14.072913 151.502584 -105.265810 3.520553 -6.262727 87.472764 4.084559 -0.188135 21.454558 0.003094 -0.000001 133.035160 6.579488 -176.037102 -61.867683 -3.572752 -0.281761 74.142161 4.553684 14.068187 21.454560 -0.003111 -0.000018 8.030733 2.941152 -0.568210 6.031206 5.907665 -0.984131 5.711305 5.901752 -1.019915 14.719218 3.729384 -5.370275 -15.637419 -12.144285 -1.065547 -159.298248 -87.040837 -22.448977 17.781359 63.803959 45.559694 -91.647833 -3.500073 2.623020 -2.153906 0.476035 49.207002 168.803932 78.844651 -9.920922 9.018472 -45.111931 -16.360349 -68.471861 8.146404 -1.991795 -6.601030 7.509124 -17.241001 
246.650998 0.000000 191.670054 0.000000 93.066569 0.000000 4.365226 71.872223 0.523076 100.653636 2.696033 -173.067376 161.824544 -13.982898 147.385824 -106.274711 3.533324 -7.980075 89.511337 5.451241 1.218213 21.454543 0.003088 0.000003 133.496020 8.237702 -177.304976 -60.847997 -3.601306 -1.154652 74.815235 5.378703 14.933935 21.454558 -0.003117 -0.000019 8.095902 2.861980 -0.052874 6.187815 5.722597 0.046983 5.867990 5.722910 0.012314 14.349059 3.126013 -5.843589 -14.546723 -11.103465 -2.078192 -156.101241 -86.718363 -25.667030 15.705789 63.978723 43.967106 -91.382119 -3.498629 2.611120 -1.999532 1.553267 49.146951 157.590141 80.594538 -21.219934 4.382358 -45.815143 -13.391098 -64.175617 9.107138 -1.888427 -3.657391 5.596430 -15.615020 
244.537431 0.000000 190.058569 0.000000 93.183869 0.000000 3.324604 72.563583 0.590528 100.225131 2.684693 -173.641941 152.960311 -15.677309 146.067379 -104.491205 3.132615 -7.827575 91.297752 5.343090 1.303480 21.454550 0.003087 -0.000003 134.616799 9.563788 -177.499650 -59.225096 -3.496286 -1.846530 75.108865 6.041455 15.558177 21.454560 -0.003108 -0.000019 8.249493 2.867008 0.256745 6.511104 5.714986 0.674873 6.191279 5.719102 0.640244 14.155625 3.008956 -6.127602 -13.858044 -9.501157 -2.985683 -154.545311 -86.602120 -27.234034 16.017055 64.281895 43.622205 -91.223330 -3.463607 2.601628 -2.242021 1.675190 47.764182 144.891139 81.342765 -34.014895 0.545434 -45.817343 -10.226470 -60.929556 9.598860 -1.798777 -1.259672 3.067774 -16.911205 
242.200435 0.000000 188.914934 0.000000 93.127471 0.000000 2.563036 72.983421 0.722472 99.723631 2.672387 -173.537530 144.392275 -17.372496 149.100338 -100.975707 2.666720 -7.406990 91.691376 4.994610 0.711433 21.454557 0.003096 -0.000001 135.583763 11.496298 -176.909194 -57.633211 -3.521739 -2.727131 75.676085 6.734821 15.975280 21.454557 -0.003098 -0.000016 8.292989 2.782662 0.417138 6.604874 5.536965 0.993221 6.285207 5.543009 0.959654 14.553683 3.522142 -6.685339 -13.882015 -8.154806 -3.994322 -153.491535 -86.498035 -28.295179 17.933435 64.715516 44.183176 -91.340680 -3.361999 2.599738 -1.896830 1.878850 46.842697 141.857906 81.378596 -37.073010 -1.596346 -44.800027 -8.411649 -59.088971 9.721252 -1.739216 -0.205842 1.323113 -20.586521 
239.645807 0.000000 188.233270 0.000000 92.879417 0.000000 2.258627 73.034142 0.913707 99.306278 3.008674 -173.415278 137.228145 -18.899709 155.730594 -96.811217 2.241348 -8.005219 90.883071 5.276865 -0.311847 21.454551 0.003087 0.000002 136.183508 13.318106 -175.710660 -56.502825 -3.743902 -3.881793 76.032505 7.610276 16.236323 21.454562 -0.003108 -0.000018 8.285524 2.676240 0.591463 6.596325 5.314429 1.335598 6.276828 5.322543 1.303403 14.374138 4.765274 -7.161725 -13.756010 -7.097829 -4.739461 -147.862230 -86.704259 -33.948018 20.232183 65.118771 45.088647 -91.831880 -3.159056 2.607372 -2.298016 1.526919 45.403792 145.205095 81.313566 -33.699966 -2.256668 -43.921914 -7.276994 -59.080563 9.914463 -1.752026 0.218104 0.342918 -24.697498 
